<svg width="699" height="699" viewBox="0 0 699 699" fill="none" xmlns="http://www.w3.org/2000/svg">
<path d="M491.239 346.613L324.363 373.063L350.8 206.187C351.551 201.442 348.322 196.986 343.578 196.235H343.565C283.604 186.709 222.729 206.5 179.83 249.461C105.912 323.392 105.912 443.664 179.83 517.595C253.749 591.526 374.034 591.526 447.952 517.595C490.914 474.696 510.692 413.809 501.178 353.861C500.44 349.104 495.984 345.862 491.239 346.613ZM478.133 435.453C469.871 461.828 455.288 485.8 435.672 505.29C368.526 572.424 259.282 572.424 192.135 505.29C124.989 438.144 124.989 328.887 192.135 261.741C211.626 242.138 235.585 227.555 261.973 219.28C284.668 212.17 308.59 209.767 332.249 212.27L305.323 382.164C304.572 386.908 307.801 391.365 312.546 392.103C313.447 392.253 314.361 392.253 315.262 392.103L485.143 365.19C487.647 388.836 485.256 412.758 478.133 435.453Z" fill="#21173E"/>
<path d="M250.469 307.131C234.521 291.184 208.684 291.184 192.749 307.119C176.813 323.054 176.801 348.904 192.736 364.839C208.672 380.787 234.521 380.787 250.469 364.852C266.367 348.904 266.379 323.079 250.469 307.131ZM238.164 352.559C229.013 361.697 214.18 361.697 205.029 352.547C195.878 343.396 195.891 328.562 205.041 319.424C214.192 310.273 229.026 310.286 238.164 319.437C247.302 328.587 247.302 343.408 238.164 352.559Z" fill="#21173E"/>
<path d="M482.752 236.918H505.172L505.159 218.817H482.752V236.918Z" fill="#21173E"/>
<path d="M482.752 195.359H464.651V218.818H482.752V195.359Z" fill="#21173E"/>
<path d="M464.651 259.325L482.752 259.338V218.817H442.244V236.918H464.651V259.325Z" fill="#21173E"/>
<path d="M435.409 288.567H413.002V306.668H435.409V288.567Z" fill="#21173E"/>
<path d="M413.001 265.109H394.9V288.58H413.001V265.109Z" fill="#21173E"/>
<path d="M394.901 329.075H413.002V288.567H372.494V306.681L394.901 306.668V329.075Z" fill="#21173E"/>
<path d="M574.909 149.08H552.502V167.181H574.909V149.08Z" fill="#21173E"/>
<path d="M552.501 125.609H534.4V149.08H552.501V125.609Z" fill="#21173E"/>
<path d="M534.401 189.576L552.502 189.588V149.08H511.994V167.181H534.401V189.576Z" fill="#21173E"/>
</svg>
